# xmcd
#
# Track frame offsets:
#	150
#	17860
#	29447
#	45048
#	65802
#	69378
#	74541
#	89727
#	109695
#	127146
#	142385
#	151205
#	155408
#
# Disc length: 2397 seconds
#
# Revision: 1
# Processed by: cddbd v1.5.1PL0 Copyright (c) Steve Scherf et al.
# Submitted via: EasyCDDAExtractor 6.2.0.3
#
DISCID=bf095b0d
DTITLE=marilyn henkinet - demo
DYEAR=1900
DGENRE=
TTITLE0=ACDC - Beating arond the bush
TTITLE1=ACDC - Get it hot
TTITLE2=ACDC - Highway to hell
TTITLE3=ACDC - If you want blood
TTITLE4=ACDC - Love hugry man
TTITLE5=ACDC - Night prowler
TTITLE6=ACDC - Shot down in flames
TTITLE7=ACDC - Touch too much
TTITLE8=ACDC - walk all over you
TTITLE9=ACDC -girls got rythm
TTITLE10=New1
TTITLE11=New3
TTITLE12=4 jour(kurkurma) 03012005
EXTD=
EXTT0=
EXTT1=
EXTT2=
EXTT3=
EXTT4=
EXTT5=
EXTT6=
EXTT7=
EXTT8=
EXTT9=
EXTT10=
EXTT11=
EXTT12=
PLAYORDER=
